<?xml version="1.0" ?>
<!DOCTYPE svg  PUBLIC '-//W3C//DTD SVG 1.1//EN'  'http://www.w3.org/Graphics/SVG/1.1/DTD/svg11.dtd'>
<!-- Uploaded to: SVG Repo, www.svgrepo.com, Generator: SVG Repo Mixer Tools -->
<svg fill="#000000" width="800px" height="800px" viewBox="0 0 512 512" version="1.1" xml:space="preserve" xmlns="http://www.w3.org/2000/svg" xmlns:xlink="http://www.w3.org/1999/xlink">
<g id="_x36_43_x2C__Map_x2C__states_x2C__united_x2C__usa">
<g>
<g>
<g>
<g>
<path d="M340.664,125.86h-29.781c-4.397,0-8.278-2.873-9.563-7.078c-1.276-4.178,0.307-8.697,3.902-11.166       c0.56-0.477,1.786-2.147,2.496-3.766c3.651-8.321,9.921-13.093,17.201-13.093c3.492,0,8.711,1.159,13.739,6.679       c3.813,4.188,7.243,8.75,9.999,12.415c2.277,3.029,2.646,7.085,0.954,10.476C347.918,123.718,344.454,125.86,340.664,125.86z"/>
</g>
<g>
<path d="M484.41,125.86h-27.493c-3.629,0-6.973-1.966-8.737-5.137c-1.766-3.171-1.674-7.049,0.238-10.133       c1.571-2.533,2.479-5.224,2.627-7.781c0.28-4.836,0.873-9.564,1.447-14.136c0.249-1.98,0.498-3.96,0.719-5.941       c0.43-3.843,3.036-7.094,6.693-8.349l2.862-0.982c4.104-1.411,8.65-0.011,11.252,3.463l21.239,28.361       c2.502,3.341,2.665,7.886,0.409,11.398c-0.797,1.24-1.684,2.715-2.677,4.374C491.185,124.013,487.927,125.86,484.41,125.86z"/>
</g>
<g>
<path d="M272.685,445.942c-1.107,0-2.217-0.034-3.297-0.102c-5.39-0.338-9.538-4.896-9.369-10.293       c0.169-5.398,4.594-9.688,9.995-9.688h5.428c5.408,0,9.837,4.3,9.996,9.706c0.158,5.406-4.01,9.959-9.408,10.276       C274.905,445.909,273.78,445.942,272.685,445.942z"/>
</g>
<g>
<path d="M372.735,198.4c-1.429,0-2.862-0.306-4.201-0.926c-3.184-1.474-5.361-4.508-5.739-7.996       c-0.073-0.677-0.18-1.389-0.291-2.121c-0.436-2.88,0.406-5.808,2.306-8.017c1.899-2.209,4.669-3.48,7.582-3.48h4.287       c4.468,0,8.394,2.964,9.617,7.261c1.225,4.297-0.551,8.885-4.349,11.238c-1.431,0.887-2.575,1.624-3.602,2.319       C376.662,197.819,374.704,198.4,372.735,198.4z"/>
</g>
<g>
<path d="M443.845,235.86H225.441c-5.523,0-10-4.477-10-10v-40c0-5.523,4.477-10,10-10h146.95c0.735,0,1.453,0.08,2.146,0.232       c0.7-0.153,1.418-0.232,2.141-0.232h72.479c3.666,0,7.038,2.006,8.788,5.228c1.749,3.222,1.596,7.143-0.4,10.217       c-0.237,0.366-0.788,1.645-0.766,5.603c0.047,8.58-1.14,16.933-2.288,25.01c-0.249,1.759-0.499,3.517-0.735,5.274       C453.088,232.156,448.853,235.86,443.845,235.86z M235.441,215.86h199.707c0.907-6.512,1.664-12.738,1.631-18.842       c-0.002-0.377-0.001-0.764,0.004-1.158h-57.204c-0.435,0.283-0.843,0.554-1.233,0.819c-2.905,1.967-6.628,2.269-9.812,0.795       c-0.906-0.42-1.732-0.966-2.458-1.614H235.441V215.86z"/>
</g>
<g>
<path d="M428.667,305.86H55.687c-1.755,0-3.479-0.462-5-1.34c-5.911-3.413-10.446-7.894-13.863-13.697       c-0.905-1.538-1.382-3.289-1.382-5.073v-29.89c0-5.523,4.477-10,10-10h400.252c2.703,0,5.29,1.094,7.174,3.033       c1.883,1.939,2.9,4.557,2.822,7.259c-0.099,3.363-0.48,6.754-0.863,9.938c-1.208,10.026-5.78,16.739-9.813,22.662       c-1.172,1.721-2.279,3.346-3.25,4.979c-1.354,2.275-2.841,4.669-4.683,7.535C435.24,304.129,432.07,305.86,428.667,305.86z        M58.652,285.86h364.498c0.5-0.813,0.972-1.594,1.425-2.354c1.283-2.158,2.617-4.117,3.907-6.012       c2.805-4.117,5.104-7.493,6.1-11.634H55.441v16.854C56.37,283.902,57.428,284.939,58.652,285.86z"/>
</g>
<g>
<path d="M373.645,165.86H225.441c-5.523,0-10-4.477-10-10v-40c0-5.523,4.477-10,10-10h60.387c0.614,0,1.227,0.057,1.83,0.169       c5.59,1.04,12.007,1.32,18.885,0.822c1.349-0.649,2.831-0.991,4.34-0.991h29.781c3.144,0,6.104,1.478,7.993,3.991l0.403,0.536       c2.191,2.916,4.263,5.672,6.442,8.314c0.098,0.081,0.278,0.193,0.399,0.246c2.764,0.534,5.617,0.922,8.636,1.332       c4.649,0.633,9.458,1.287,14.335,2.542c4.588,1.181,7.903,3.93,10.566,6.138c0.829,0.687,1.611,1.336,2.267,1.794       c2.818,1.972,4.427,5.254,4.256,8.689c-0.17,3.436-2.094,6.542-5.094,8.226c-1.082,0.607-2.14,1.118-3.072,1.568       c-0.895,0.431-2.245,1.083-2.625,1.407c-0.324,0.333-0.865,1.365-0.974,2.074c-0.22,1.433-0.419,2.873-0.619,4.312       l-0.028,0.207C382.863,162.179,378.636,165.86,373.645,165.86z M235.441,145.86h129.923c0.573-1.71,1.341-3.379,2.265-4.931       c-1.874-0.3-3.805-0.563-5.787-0.833c-3.208-0.437-6.526-0.888-9.891-1.543c-4.467-0.87-8.88-3.501-11.805-7.039       c-1.545-1.87-3.025-3.769-4.464-5.654h-22.491c-1.154,0.432-2.332,0.701-3.523,0.804c-8.807,0.768-17.217,0.494-24.729-0.804       h-49.498V145.86z"/>
</g>
<g>
<path d="M471.471,165.86h-62.316c-3.834,0-7.33-2.192-9.001-5.642c-1.67-3.451-1.221-7.552,1.156-10.56       c4.67-5.906,9.107-11.869,12.833-16.922c3.907-5.302,9.813-13.314,22.421-14.018c4.288-0.24,8.941-3.43,11.854-8.128       c1.824-2.941,5.039-4.73,8.499-4.73h27.493c3.601,0,6.924,1.936,8.699,5.069c1.776,3.132,1.73,6.978-0.119,10.067l-0.234,0.393       c-2.784,4.652-6.249,10.441-10.538,15.754c-2.415,2.992-6.004,8.597-2.906,12.51c2.38,3.006,2.831,7.109,1.161,10.562       S475.306,165.86,471.471,165.86z M429.313,145.86h28.808c0.107-6.575,2.641-13.491,7.537-20h-3.661       c-6.39,7.621-15.157,12.315-24.318,12.827c-2.56,0.143-3.625,0.743-7.438,5.916       C429.937,145.016,429.628,145.435,429.313,145.86z"/>
</g>
<g>
<path d="M449.157,195.86h-72.479c-4.469,0-8.395-2.964-9.618-7.262c-1.224-4.298,0.553-8.885,4.352-11.239       c1.15-0.713,2.3-1.408,3.438-2.096c4.817-2.911,8.978-5.426,11.853-8.492c4.614-4.92,9.392-10.517,14.606-17.114       c1.896-2.398,4.787-3.798,7.845-3.798h62.316c3.056,0,5.943,1.397,7.84,3.792c0.563,0.71,1.315,1.387,2.236,2.012       c4.311,2.922,5.657,8.662,3.097,13.196c-0.741,1.313-1.449,2.694-2.2,4.158c-1.91,3.727-4.075,7.95-7.256,11.691       c-4.292,5.053-10.503,7.782-14.957,9.182c-1.391,0.437-2.395,0.966-2.687,1.416C455.699,194.146,452.543,195.86,449.157,195.86       z M405.482,175.86h39.291c2.559-2.185,5.723-3.875,9.463-5.05c2.938-0.923,4.985-2.198,5.711-3.052       c0.481-0.566,0.944-1.204,1.397-1.898h-47.388C411.038,169.455,408.229,172.77,405.482,175.86z"/>
</g>
<g>
<path d="M372.392,195.86h-146.95c-5.523,0-10-4.477-10-10v-30c0-5.523,4.477-10,10-10h148.203c2.892,0,5.642,1.252,7.541,3.432       c1.899,2.181,2.762,5.077,2.364,7.941c-0.984,7.104-1.642,13.562-2.009,19.74c-0.112,1.882,0.255,4.256,0.609,6.552       l0.128,0.832c0.438,2.881-0.403,5.811-2.303,8.021C378.076,194.588,375.307,195.86,372.392,195.86z M235.441,175.86h126.131       c0.001-0.024,0.003-0.048,0.004-0.073c0.192-3.233,0.456-6.527,0.796-9.927H235.441V175.86z"/>
</g>
<g>
<path d="M445.693,265.859H225.441c-5.523,0-10-4.477-10-10v-30c0-5.523,4.477-10,10-10h218.403       c2.885,0,5.629,1.246,7.528,3.418c1.898,2.171,2.768,5.058,2.382,7.917c-0.168,1.247-0.33,2.493-0.479,3.739       c-0.235,1.977-0.739,3.749-1.184,5.312c-0.069,0.243-0.15,0.531-0.229,0.817c3.681,7.524,3.963,14.411,3.826,19.092       C455.53,261.56,451.102,265.859,445.693,265.859z M235.441,245.86h198.463c-0.181-0.368-0.376-0.734-0.587-1.101       c-1.752-3.051-1.944-6.15-1.603-8.899H235.441V245.86z"/>
</g>
<g>
<path d="M433.873,425.735c-2.775,0-5.503-1.154-7.447-3.322c-3.399-3.418-22.249-9.233-33.516-12.709       c-4.586-1.415-9.329-2.879-13.794-4.34c-4.671-1.528-7.539-6.226-6.765-11.079c0.773-4.854,4.96-8.425,9.875-8.425h52.384       c4.482,0,8.418,2.983,9.628,7.3c0.752,2.678,1.355,5.37,1.796,8.004c0.608,3.646,0.459,7.072,0.327,10.096       c-0.051,1.169-0.099,2.273-0.099,3.292c0,3.804-2.158,7.278-5.567,8.964l-2.394,1.184       C436.89,425.397,435.374,425.735,433.873,425.735z"/>
</g>
<g>
<path d="M275.441,445.86h-5.428c-0.208,0-0.417-0.007-0.624-0.02c-17.523-1.097-30.199-11.004-36.657-28.652       c-2.155-5.888-4.617-11.516-7.318-16.726c-1.607-3.101-1.48-6.814,0.333-9.798s5.053-4.805,8.544-4.805h43.697       c5.449,0,9.896,4.362,9.998,9.811c0.091,4.809-1.755,9.32-5.338,13.048c-2.365,2.459-1.225,8.068,0.831,17.017       c0.606,2.636,1.232,5.362,1.783,8.254c0.558,2.927-0.219,5.95-2.119,8.246C281.246,444.531,278.421,445.86,275.441,445.86z        M249.815,405.86c0.584,1.47,1.151,2.956,1.7,4.455c2.54,6.939,6.092,11.378,11.112,13.688       c-1.201-6.035-1.915-12.266-0.486-18.143H249.815z"/>
</g>
<g>
<path d="M420.949,375.86c-0.005,0-0.013,0-0.02,0h-66.667c-4.813,0-8.942-3.428-9.829-8.157       c-1.038-5.541-2.675-8.824-3.51-9.887c-0.813-0.301-1.528-0.641-2.179-0.95c-1.655-0.788-3.366-1.602-6.808-1.602       c-1.448,0-3.062,0.151-4.798,0.45c-0.185,0.032-0.371,0.059-0.558,0.08c-1.438,0.181-3.144,0.627-4.507,1.135       c0.317,1.53,0.771,3.505,1.357,5.912c0.301,0.953,0.463,1.967,0.463,3.019c0,5.522-4.477,10-10,10       c-0.008-0.001-0.015-0.001-0.02,0H184.495c-4.01,0-7.632-2.396-9.202-6.086c-1.178-2.769-3.278-5.897-5.309-8.923       c-0.506-0.755-1.008-1.503-1.496-2.243c-1.48-2.246-2.813-2.557-4.034-2.557c-0.856,0-1.839,0.184-2.92,0.545       c-6.354,2.122-12.603,3.198-18.568,3.198c0,0,0,0-0.001,0c-14.126,0-26.871-5.871-37.883-17.449       c-3.362-3.535-6.48-6.024-9.534-7.611c-4.09-2.125-6.198-6.771-5.104-11.247c1.094-4.478,5.105-7.627,9.714-7.627H410.59       c3.423,0,6.607,1.751,8.442,4.641s2.063,6.517,0.607,9.614c-0.43,0.914-0.849,1.831-1.244,2.759       c-0.085,0.364-0.695,3.909,4.443,14.936c1.962,4.208,4.227,8.424,6.576,12.726c0.972,1.542,1.534,3.368,1.534,5.325       C430.949,371.383,426.473,375.86,420.949,375.86z M361.974,355.86h42.553c-2.799-6.051-5.597-13.146-6.111-20h-59.773       c4.119,0.768,6.926,2.104,8.696,2.945c0.188,0.09,0.359,0.174,0.518,0.245C355.36,341.474,359.602,348.916,361.974,355.86z        M190.557,355.86H301.64c-0.391-3.925,0.104-6.813,1.971-9.452c5.733-8.094,17.391-10.065,20.389-10.446       c0.21-0.035,0.42-0.069,0.629-0.102H128.585c4.537,2.638,9.299,3.935,14.38,3.935c3.809,0,7.924-0.729,12.233-2.169       c3.127-1.044,6.242-1.574,9.256-1.574c8.463,0,15.828,4.104,20.736,11.555c0.457,0.692,0.927,1.393,1.401,2.1       C187.879,351.625,189.259,353.681,190.557,355.86z"/>
</g>
<polygon points="65.441,128.727 63.124,133.423 57.941,134.176 61.691,137.832 60.806,142.993 65.441,140.556 70.077,142.993       69.191,137.832 72.941,134.176 67.759,133.423     "/>
<polygon points="85.441,128.727 83.124,133.423 77.941,134.176 81.691,137.832 80.806,142.993 85.441,140.556 90.077,142.993       89.191,137.832 92.941,134.176 87.759,133.423     "/>
<polygon points="105.441,128.727 103.124,133.423 97.941,134.176 101.691,137.832 100.806,142.993 105.441,140.556       110.077,142.993 109.191,137.832 112.941,134.176 107.759,133.423     "/>
<polygon points="125.441,128.727 123.124,133.423 117.941,134.176 121.691,137.832 120.806,142.993 125.441,140.556       130.077,142.993 129.191,137.832 132.941,134.176 127.759,133.423     "/>
<polygon points="145.441,128.727 143.124,133.423 137.941,134.176 141.691,137.832 140.806,142.993 145.441,140.556       150.077,142.993 149.191,137.832 152.941,134.176 147.759,133.423     "/>
<polygon points="165.441,128.727 163.124,133.423 157.941,134.176 161.691,137.832 160.806,142.993 165.441,140.556       170.077,142.993 169.191,137.832 172.941,134.176 167.759,133.423     "/>
<polygon points="185.441,128.727 183.124,133.423 177.941,134.176 181.691,137.832 180.806,142.993 185.441,140.556       190.077,142.993 189.191,137.832 192.941,134.176 187.759,133.423     "/>
<polygon points="205.441,128.727 203.124,133.423 197.941,134.176 201.691,137.832 200.806,142.993 205.441,140.556       210.077,142.993 209.191,137.832 212.941,134.176 207.759,133.423     "/>
<polygon points="65.441,148.727 63.124,153.423 57.941,154.176 61.691,157.832 60.806,162.993 65.441,160.556 70.077,162.993       69.191,157.832 72.941,154.176 67.759,153.423     "/>
<polygon points="85.441,148.727 83.124,153.423 77.941,154.176 81.691,157.832 80.806,162.993 85.441,160.556 90.077,162.993       89.191,157.832 92.941,154.176 87.759,153.423     "/>
<polygon points="105.441,148.727 103.124,153.423 97.941,154.176 101.691,157.832 100.806,162.993 105.441,160.556       110.077,162.993 109.191,157.832 112.941,154.176 107.759,153.423     "/>
<polygon points="125.441,148.727 123.124,153.423 117.941,154.176 121.691,157.832 120.806,162.993 125.441,160.556       130.077,162.993 129.191,157.832 132.941,154.176 127.759,153.423     "/>
<polygon points="145.441,148.727 143.124,153.423 137.941,154.176 141.691,157.832 140.806,162.993 145.441,160.556       150.077,162.993 149.191,157.832 152.941,154.176 147.759,153.423     "/>
<polygon points="165.441,148.727 163.124,153.423 157.941,154.176 161.691,157.832 160.806,162.993 165.441,160.556       170.077,162.993 169.191,157.832 172.941,154.176 167.759,153.423     "/>
<polygon points="185.441,148.727 183.124,153.423 177.941,154.176 181.691,157.832 180.806,162.993 185.441,160.556       190.077,162.993 189.191,157.832 192.941,154.176 187.759,153.423     "/>
<polygon points="205.441,148.727 203.124,153.423 197.941,154.176 201.691,157.832 200.806,162.993 205.441,160.556       210.077,162.993 209.191,157.832 212.941,154.176 207.759,153.423     "/>
<polygon points="65.441,168.727 63.124,173.423 57.941,174.176 61.691,177.832 60.806,182.993 65.441,180.556 70.077,182.993       69.191,177.832 72.941,174.176 67.759,173.423     "/>
<polygon points="85.441,168.727 83.124,173.423 77.941,174.176 81.691,177.832 80.806,182.993 85.441,180.556 90.077,182.993       89.191,177.832 92.941,174.176 87.759,173.423     "/>
<polygon points="105.441,168.727 103.124,173.423 97.941,174.176 101.691,177.832 100.806,182.993 105.441,180.556       110.077,182.993 109.191,177.832 112.941,174.176 107.759,173.423     "/>
<polygon points="125.441,168.727 123.124,173.423 117.941,174.176 121.691,177.832 120.806,182.993 125.441,180.556       130.077,182.993 129.191,177.832 132.941,174.176 127.759,173.423     "/>
<polygon points="145.441,168.727 143.124,173.423 137.941,174.176 141.691,177.832 140.806,182.993 145.441,180.556       150.077,182.993 149.191,177.832 152.941,174.176 147.759,173.423     "/>
<polygon points="165.441,168.727 163.124,173.423 157.941,174.176 161.691,177.832 160.806,182.993 165.441,180.556       170.077,182.993 169.191,177.832 172.941,174.176 167.759,173.423     "/>
<polygon points="185.441,168.727 183.124,173.423 177.941,174.176 181.691,177.832 180.806,182.993 185.441,180.556       190.077,182.993 189.191,177.832 192.941,174.176 187.759,173.423     "/>
<polygon points="205.441,168.727 203.124,173.423 197.941,174.176 201.691,177.832 200.806,182.993 205.441,180.556       210.077,182.993 209.191,177.832 212.941,174.176 207.759,173.423     "/>
<polygon points="65.441,188.727 63.124,193.423 57.941,194.176 61.691,197.832 60.806,202.993 65.441,200.556 70.077,202.993       69.191,197.832 72.941,194.176 67.759,193.423     "/>
<polygon points="85.441,188.727 83.124,193.423 77.941,194.176 81.691,197.832 80.806,202.993 85.441,200.556 90.077,202.993       89.191,197.832 92.941,194.176 87.759,193.423     "/>
<polygon points="105.441,188.727 103.124,193.423 97.941,194.176 101.691,197.832 100.806,202.993 105.441,200.556       110.077,202.993 109.191,197.832 112.941,194.176 107.759,193.423     "/>
<polygon points="125.441,188.727 123.124,193.423 117.941,194.176 121.691,197.832 120.806,202.993 125.441,200.556       130.077,202.993 129.191,197.832 132.941,194.176 127.759,193.423     "/>
<polygon points="145.441,188.727 143.124,193.423 137.941,194.176 141.691,197.832 140.806,202.993 145.441,200.556       150.077,202.993 149.191,197.832 152.941,194.176 147.759,193.423     "/>
<polygon points="165.441,188.727 163.124,193.423 157.941,194.176 161.691,197.832 160.806,202.993 165.441,200.556       170.077,202.993 169.191,197.832 172.941,194.176 167.759,193.423     "/>
<polygon points="185.441,188.727 183.124,193.423 177.941,194.176 181.691,197.832 180.806,202.993 185.441,200.556       190.077,202.993 189.191,197.832 192.941,194.176 187.759,193.423     "/>
<polygon points="205.441,188.727 203.124,193.423 197.941,194.176 201.691,197.832 200.806,202.993 205.441,200.556       210.077,202.993 209.191,197.832 212.941,194.176 207.759,193.423     "/>
<polygon points="65.441,208.727 63.124,213.423 57.941,214.176 61.691,217.832 60.806,222.993 65.441,220.556 70.077,222.993       69.191,217.832 72.941,214.176 67.759,213.423     "/>
<polygon points="85.441,208.727 83.124,213.423 77.941,214.176 81.691,217.832 80.806,222.993 85.441,220.556 90.077,222.993       89.191,217.832 92.941,214.176 87.759,213.423     "/>
<polygon points="105.441,208.727 103.124,213.423 97.941,214.176 101.691,217.832 100.806,222.993 105.441,220.556       110.077,222.993 109.191,217.832 112.941,214.176 107.759,213.423     "/>
<polygon points="125.441,208.727 123.124,213.423 117.941,214.176 121.691,217.832 120.806,222.993 125.441,220.556       130.077,222.993 129.191,217.832 132.941,214.176 127.759,213.423     "/>
<polygon points="145.441,208.727 143.124,213.423 137.941,214.176 141.691,217.832 140.806,222.993 145.441,220.556       150.077,222.993 149.191,217.832 152.941,214.176 147.759,213.423     "/>
<polygon points="165.441,208.727 163.124,213.423 157.941,214.176 161.691,217.832 160.806,222.993 165.441,220.556       170.077,222.993 169.191,217.832 172.941,214.176 167.759,213.423     "/>
<polygon points="185.441,208.727 183.124,213.423 177.941,214.176 181.691,217.832 180.806,222.993 185.441,220.556       190.077,222.993 189.191,217.832 192.941,214.176 187.759,213.423     "/>
<polygon points="205.441,208.727 203.124,213.423 197.941,214.176 201.691,217.832 200.806,222.993 205.441,220.556       210.077,222.993 209.191,217.832 212.941,214.176 207.759,213.423     "/>
<polygon points="67.759,233.423 65.441,228.727 63.124,233.423 57.941,234.176 61.691,237.832 60.806,242.993 65.441,240.556       70.077,242.993 69.191,237.832 72.941,234.176     "/>
<polygon points="87.759,233.423 85.441,228.727 83.124,233.423 77.941,234.176 81.691,237.832 80.806,242.993 85.441,240.556       90.077,242.993 89.191,237.832 92.941,234.176     "/>
<polygon points="107.759,233.423 105.441,228.727 103.124,233.423 97.941,234.176 101.691,237.832 100.806,242.993       105.441,240.556 110.077,242.993 109.191,237.832 112.941,234.176     "/>
<polygon points="127.759,233.423 125.441,228.727 123.124,233.423 117.941,234.176 121.691,237.832 120.806,242.993       125.441,240.556 130.077,242.993 129.191,237.832 132.941,234.176     "/>
<polygon points="147.759,233.423 145.441,228.727 143.124,233.423 137.941,234.176 141.691,237.832 140.806,242.993       145.441,240.556 150.077,242.993 149.191,237.832 152.941,234.176     "/>
<polygon points="167.759,233.423 165.441,228.727 163.124,233.423 157.941,234.176 161.691,237.832 160.806,242.993       165.441,240.556 170.077,242.993 169.191,237.832 172.941,234.176     "/>
<polygon points="187.759,233.423 185.441,228.727 183.124,233.423 177.941,234.176 181.691,237.832 180.806,242.993       185.441,240.556 190.077,242.993 189.191,237.832 192.941,234.176     "/>
<polygon points="207.759,233.423 205.441,228.727 203.124,233.423 197.941,234.176 201.691,237.832 200.806,242.993       205.441,240.556 210.077,242.993 209.191,237.832 212.941,234.176     "/>
<g>
<path d="M410.59,335.86H100.158c-1.605,0-3.188-0.387-4.612-1.127c-4.398-2.285-8.748-2.703-13.862-1.386       c-0.984,0.253-2.021,0.382-3.08,0.382c-5.175,0-11.415-3.382-14.229-6.514c-2.894-3.222-3.012-6.628-2.824-8.372       c0.256-2.383,0.856-7.961-9.831-13.738c-0.323-0.175-0.624-0.348-0.923-0.521l-0.113-0.065       c-3.918-2.264-5.828-6.877-4.656-11.248c1.172-4.371,5.133-7.41,9.659-7.41h372.98c3.657,0,7.023,1.997,8.776,5.207       c1.753,3.209,1.614,7.12-0.362,10.197c-1.295,2.015-2.607,4.021-3.92,6.025c-5.086,7.767-9.89,15.104-13.522,22.826       C417.99,333.622,414.464,335.86,410.59,335.86z M102.424,315.86H404.44c1.84-3.42,3.817-6.745,5.85-10H79.371       c1.017,2.438,1.634,4.853,1.961,7.181C88.702,311.959,95.746,312.912,102.424,315.86z"/>
</g>
<g>
<path d="M277.99,405.86h-43.697c-3.735,0-7.159-2.082-8.878-5.398c-1.678-3.236-3.465-6.344-5.313-9.236       c-1.55-2.427-3.54-3.876-5.321-3.876c-1.654,0-3.263,1.291-4.413,3.542c-2.018,3.947-6.396,6.096-10.752,5.277       c-5.78-1.087-21.133-3.973-23.445-23.438c-0.097-0.82-0.393-1.814-0.878-2.956c-1.314-3.089-0.991-6.631,0.86-9.431       s4.984-4.484,8.341-4.484h129.381c4.604,0,8.612,3.144,9.711,7.614l0.299,1.211c0.644,2.609,1.152,4.67,1.407,6.139       c0.625,3.59-0.752,7.235-3.595,9.516c-7.009,5.621-12.072,9.683-19.009,9.683c-6.576,0-11.739-3.729-18.887-8.889       c-0.356-0.258-0.659-0.468-0.916-0.64c-0.074,0.06-0.151,0.124-0.233,0.192c0.357,0.748,0.836,1.64,1.203,2.324       c1.797,3.345,4.032,7.508,4.132,12.656c0.052,2.686-0.979,5.278-2.859,7.196C283.249,404.78,280.676,405.86,277.99,405.86z        M240.226,385.86h23.04c-0.959-2.962-1.497-6.419-0.664-10h-29.186c1.282,1.382,2.468,2.918,3.542,4.599       C238.07,382.202,239.163,384.007,240.226,385.86z"/>
</g>
<g>
<path d="M434.61,405.86h-52.384c-1.057,0-2.106-0.167-3.11-0.496c-17.287-5.658-25.337-9.677-29.701-14.826       c-4.645-5.481-4.479-13.065-4.316-15.259c0.098-1.338-0.018-4.129-0.664-7.574c-0.549-2.924,0.232-5.94,2.133-8.23       c1.899-2.289,4.72-3.614,7.695-3.614h66.667c3.655,0,7.02,1.994,8.773,5.202l0.623,1.138       c5.273,9.634,10.727,19.595,13.913,30.96c0.845,3.014,0.23,6.248-1.66,8.742C440.688,404.396,437.739,405.86,434.61,405.86z        M383.834,385.86h36.284c-1.564-3.327-3.305-6.639-5.123-10h-49.899c-0.013,0.3-0.03,0.595-0.051,0.882       c-0.032,0.433,0.004,0.898,0.061,1.245C366.503,379.074,370.815,381.524,383.834,385.86z"/>
</g>
</g>
</g>
<g>
<path d="M45.441,295.861c-3.478,0-6.788-1.821-8.617-4.928c-3.747-6.365-5.47-13.283-6.99-19.387     c-0.271-1.085-0.54-2.17-0.821-3.248c-4.315-16.571-7.75-33.521-11.073-49.914c-0.729-3.601-1.459-7.202-2.198-10.8     c-0.829-4.04,0.253-7.57,0.969-9.905c0.165-0.537,0.335-1.093,0.403-1.41c0.586-2.715,1.188-5.427,1.79-8.139     c1.187-5.349,2.415-10.88,3.478-16.287c0.614-3.124,1.084-6.318,1.583-9.7c1.015-6.884,2.063-14.002,4.445-21.034     c3.629-10.715,6.254-19.672,4.349-29.226c-1.007-5.049-0.786-9.973-0.572-14.735c0.09-2.017,0.184-4.103,0.184-6.192     c0-3.401,1.729-6.568,4.588-8.409c2.859-1.84,6.46-2.102,9.554-0.692c4.04,1.838,7.572,3.877,10.625,5.868     c0.548-3.158,1.144-6.92,1.078-8.56c-1.053-3.122-0.504-6.592,1.519-9.25c2.238-2.94,5.917-4.404,9.561-3.815     c5.921,0.961,8.734,3.211,10.728,5.602c5.524,2.338,10.663,5.146,15.64,7.865c9.406,5.139,18.291,9.993,27.625,10.313     c9.89,0.339,19.32,2.669,28.439,4.921c6.343,1.567,12.335,3.047,18.292,3.842c9.188,1.227,18.534,1.396,28.429,1.576     c3.731,0.067,7.589,0.138,11.414,0.27c1.819,0.063,3.64,0.135,5.461,0.207c5.079,0.201,9.877,0.391,14.709,0.391     c2.375,0,4.535-0.046,6.604-0.141c5.545-0.255,11.233-1.011,17.82-1.886c3.271-0.435,6.654-0.884,10.376-1.322     c2.607-0.306,5.224,0.422,7.296,2.028c3.922,3.041,9.147,5.185,15.531,6.373c5.079,0.945,8.603,5.604,8.128,10.75     c-0.475,5.145-4.791,9.081-9.958,9.081h-50.387v130c0,5.523-4.477,10-10,10h-170v19.891c0,4.511-3.02,8.463-7.371,9.648     C47.197,295.746,46.313,295.861,45.441,295.861z M35.533,204.542c0.674,3.288,1.341,6.579,2.008,9.871     c2.112,10.422,4.271,21.073,6.661,31.634c0.406-0.05,0.82-0.076,1.239-0.076h170V120.716c-0.304-0.012-0.607-0.024-0.91-0.036     c-1.788-0.071-3.575-0.142-5.36-0.203c-3.662-0.126-7.437-0.195-11.087-0.261c-10.024-0.182-20.389-0.37-30.713-1.749     c-7.042-0.94-13.854-2.623-20.44-4.25c-8.498-2.099-16.524-4.082-24.329-4.35c-14.075-0.483-25.49-6.719-36.528-12.75     c-3.215-1.756-6.314-3.45-9.409-4.964c-0.083,0.47-0.168,0.948-0.255,1.435c-0.553,3.097-1.369,7.668-1.382,9.535     c1.033,3.473,0.108,7.285-2.502,9.904c-2.949,2.959-7.425,3.775-11.227,2.044c-2.46-1.12-4.674-2.848-7.477-5.036     c-0.404-0.316-0.819-0.64-1.245-0.97c2.477,13.922-1.054,26.142-5.226,38.461c-1.802,5.319-2.676,11.252-3.602,17.534     c-0.511,3.466-1.039,7.049-1.745,10.642c-1.109,5.645-2.364,11.296-3.576,16.762c-0.594,2.673-1.187,5.347-1.765,8.024     c-0.248,1.147-0.558,2.161-0.832,3.054C35.741,203.838,35.622,204.226,35.533,204.542z"/>
</g>
</g>
</g>
<g id="Layer_1"/>
</svg>